<svg id="svg" version="1.1" xmlns="http://www.w3.org/2000/svg" xmlns:xlink="http://www.w3.org/1999/xlink" width="400" height="400" viewBox="0, 0, 400,400"><g id="svgg"><path id="path0" d="M299.283 26.033 C 299.691 26.264,299.877 26.700,299.746 27.111 C 299.558 27.695,299.590 27.709,299.956 27.200 C 300.629 26.264,300.480 25.776,299.500 25.707 C 298.724 25.653,298.694 25.698,299.283 26.033 M300.638 27.845 C 300.414 28.429,301.438 28.322,302.064 27.696 C 302.404 27.356,302.305 27.257,301.670 27.305 C 301.203 27.340,300.739 27.583,300.638 27.845 M303.042 28.068 C 303.235 28.380,303.115 28.453,302.683 28.287 C 302.206 28.104,290.697 39.380,259.075 71.011 L 216.115 113.984 215.906 148.892 C 215.791 168.091,215.776 183.935,215.872 184.100 C 215.968 184.265,233.902 184.402,255.724 184.405 C 287.651 184.409,295.794 184.514,297.417 184.947 C 312.733 189.025,313.328 209.507,298.289 214.927 C 297.357 215.262,285.747 215.448,256.400 215.596 L 215.800 215.800 215.596 256.400 C 215.448 285.747,215.262 297.357,214.927 298.289 C 209.507 313.328,189.025 312.733,184.947 297.417 C 184.514 295.794,184.409 287.651,184.405 255.724 C 184.402 233.902,184.265 215.970,184.100 215.876 C 183.935 215.782,168.093 215.796,148.896 215.908 L 113.993 216.112 71.228 258.856 C 47.707 282.365,28.269 301.600,28.032 301.600 C 27.794 301.600,27.600 301.966,27.600 302.414 C 27.600 303.114,27.716 303.166,28.430 302.784 C 29.190 302.377,29.223 302.410,28.816 303.170 C 28.386 303.974,28.629 304.216,29.700 304.047 C 30.098 303.984,29.897 304.930,29.442 305.260 C 28.864 305.678,29.537 306.910,30.203 306.654 C 30.630 306.490,30.800 306.699,30.800 307.389 C 30.800 307.919,31.008 308.481,31.262 308.638 C 31.567 308.827,31.614 308.746,31.400 308.400 C 31.179 308.043,31.232 307.973,31.565 308.179 C 31.834 308.345,31.958 308.733,31.840 309.040 C 31.722 309.348,31.810 309.600,32.036 309.600 C 32.262 309.600,32.350 309.757,32.231 309.950 C 32.112 310.142,32.462 310.781,33.007 311.370 C 33.553 311.959,34.000 312.702,34.000 313.021 C 34.000 313.339,34.180 313.600,34.400 313.600 C 34.620 313.600,34.800 313.835,34.800 314.122 C 34.800 314.409,35.428 315.329,36.196 316.167 C 36.963 317.005,37.504 317.832,37.398 318.003 C 37.292 318.175,37.460 318.414,37.772 318.534 C 38.084 318.654,38.643 319.391,39.014 320.172 C 39.384 320.954,39.848 321.494,40.044 321.373 C 40.240 321.252,40.400 321.368,40.400 321.631 C 40.400 321.893,40.859 322.534,41.421 323.054 C 41.982 323.574,42.320 324.000,42.172 324.000 C 42.023 324.000,42.124 324.268,42.396 324.596 C 42.668 324.923,43.078 325.075,43.307 324.934 C 43.547 324.785,43.604 324.870,43.441 325.133 C 43.169 325.574,43.409 325.986,44.900 327.629 C 45.285 328.053,45.600 328.484,45.600 328.586 C 45.600 328.688,46.765 329.983,48.189 331.464 C 49.612 332.945,50.712 334.222,50.632 334.302 C 50.411 334.522,55.167 339.200,55.612 339.200 C 55.826 339.200,56.000 339.481,56.000 339.824 C 56.000 340.167,56.135 340.382,56.300 340.303 C 56.465 340.224,57.352 340.933,58.272 341.879 C 59.191 342.826,59.879 343.600,59.800 343.600 C 59.721 343.600,60.949 344.917,62.528 346.528 C 64.108 348.138,65.454 349.419,65.519 349.375 C 65.676 349.270,67.134 350.516,69.878 353.100 C 71.104 354.255,72.263 355.200,72.453 355.200 C 72.643 355.200,73.466 355.830,74.282 356.600 C 75.099 357.370,75.999 358.000,76.283 358.000 C 76.568 358.000,76.800 358.180,76.800 358.400 C 76.800 358.620,77.100 358.800,77.467 358.800 C 77.833 358.800,78.017 358.917,77.874 359.060 C 77.577 359.357,79.589 361.199,80.212 361.200 C 80.438 361.200,80.883 361.560,81.200 362.000 C 81.517 362.440,82.057 362.800,82.400 362.800 C 82.743 362.800,83.283 363.160,83.600 363.600 C 83.917 364.040,84.362 364.400,84.588 364.401 C 84.815 364.401,85.630 364.941,86.400 365.600 C 87.170 366.259,87.985 366.799,88.212 366.799 C 88.438 366.800,88.883 367.160,89.200 367.600 C 89.517 368.040,90.082 368.400,90.455 368.400 C 90.828 368.400,91.193 368.547,91.267 368.728 C 91.435 369.142,96.242 372.400,96.685 372.400 C 96.866 372.400,97.677 372.850,98.486 373.400 C 99.295 373.950,100.237 374.400,100.579 374.400 C 100.920 374.400,101.200 374.580,101.200 374.800 C 101.200 375.020,101.545 375.200,101.967 375.200 C 102.388 375.200,102.793 375.335,102.867 375.500 C 103.034 375.876,105.164 377.175,106.100 377.471 C 106.485 377.593,106.800 377.852,106.800 378.047 C 106.800 378.241,107.053 378.400,107.362 378.400 C 108.028 378.400,111.341 380.068,111.533 380.500 C 111.607 380.665,112.012 380.800,112.433 380.800 C 112.855 380.800,113.200 380.942,113.200 381.115 C 113.200 381.288,113.602 381.460,114.094 381.497 C 114.586 381.534,115.051 381.754,115.128 381.985 C 115.205 382.216,115.418 382.312,115.602 382.199 C 115.785 382.085,116.185 382.242,116.490 382.548 C 116.796 382.853,117.619 383.228,118.320 383.382 C 119.022 383.537,119.731 383.874,119.898 384.133 C 120.239 384.665,122.696 385.600,123.752 385.600 C 124.177 385.600,124.336 385.780,124.161 386.063 C 123.966 386.378,124.142 386.456,124.712 386.307 C 125.222 386.174,125.631 386.305,125.762 386.644 C 125.879 386.950,126.305 387.200,126.707 387.200 C 127.110 387.200,127.682 387.425,127.979 387.700 C 128.416 388.106,128.458 388.088,128.200 387.600 C 127.952 387.130,127.993 387.102,128.390 387.469 C 128.669 387.727,129.146 387.842,129.449 387.726 C 129.752 387.610,130.000 387.724,130.000 387.981 C 130.000 388.237,130.180 388.336,130.400 388.200 C 130.620 388.064,130.800 388.154,130.800 388.400 C 130.800 388.646,130.960 388.749,131.155 388.628 C 131.350 388.507,131.727 388.671,131.993 388.992 C 132.276 389.333,132.963 389.519,133.647 389.439 C 134.290 389.364,134.931 389.488,135.070 389.713 C 135.228 389.969,135.111 390.002,134.762 389.803 C 134.371 389.580,134.321 389.614,134.600 389.914 C 134.820 390.152,135.540 390.403,136.200 390.473 C 136.860 390.543,137.532 390.780,137.694 391.000 C 137.868 391.238,137.990 391.166,137.994 390.824 C 137.998 390.409,138.167 390.466,138.592 391.024 C 139.070 391.650,139.254 391.695,139.542 391.257 C 139.808 390.854,139.975 390.835,140.190 391.185 C 140.350 391.443,140.728 391.560,141.029 391.444 C 141.330 391.329,141.807 391.451,142.088 391.717 C 142.714 392.308,144.231 392.324,144.119 391.739 C 144.072 391.491,144.612 391.575,145.419 391.941 C 146.208 392.298,146.800 392.859,146.800 393.248 C 146.800 394.013,147.746 394.016,148.504 393.252 C 148.900 392.854,148.858 392.807,148.300 393.019 C 147.915 393.166,147.600 393.131,147.600 392.941 C 147.600 392.752,202.906 337.293,270.503 269.698 C 338.099 202.104,393.192 146.800,392.930 146.800 C 392.403 146.800,391.789 145.278,392.164 144.902 C 392.295 144.772,392.096 144.328,391.723 143.915 C 391.086 143.211,391.086 143.181,391.722 143.426 C 392.186 143.603,392.400 143.483,392.400 143.043 C 392.400 142.689,392.220 142.400,392.000 142.400 C 391.780 142.400,391.600 142.209,391.600 141.976 C 391.600 141.743,391.815 141.686,392.079 141.849 C 392.342 142.011,392.161 141.587,391.676 140.907 C 391.085 140.077,390.950 139.617,391.268 139.511 C 391.577 139.408,391.615 139.153,391.377 138.776 C 390.983 138.153,390.929 137.965,390.844 136.900 C 390.796 136.299,390.732 136.285,390.394 136.800 C 390.112 137.230,390.069 137.046,390.241 136.149 C 390.395 135.346,390.300 134.786,389.978 134.587 C 389.632 134.372,389.577 134.439,389.800 134.800 C 389.992 135.110,389.966 135.226,389.737 135.085 C 389.525 134.954,389.389 134.295,389.436 133.622 C 389.482 132.949,389.331 132.281,389.098 132.137 C 388.833 131.973,388.797 132.071,389.000 132.400 C 389.208 132.736,389.167 132.827,388.886 132.653 C 388.646 132.505,388.518 132.027,388.602 131.592 C 388.685 131.156,388.614 130.800,388.444 130.800 C 388.273 130.800,388.133 130.534,388.133 130.208 C 388.133 129.401,387.138 126.289,386.730 125.820 C 386.549 125.611,386.400 125.131,386.400 124.753 C 386.400 124.376,386.210 124.003,385.978 123.926 C 385.746 123.849,385.511 123.479,385.456 123.104 C 385.401 122.730,385.231 122.298,385.078 122.145 C 384.925 121.992,384.800 121.447,384.800 120.933 C 384.800 120.420,384.620 120.000,384.400 120.000 C 384.180 120.000,384.000 119.640,384.000 119.200 C 384.000 118.760,383.820 118.400,383.600 118.400 C 383.380 118.400,383.200 118.040,383.200 117.600 C 383.200 117.160,383.020 116.800,382.800 116.800 C 382.580 116.800,382.400 116.440,382.400 116.000 C 382.400 115.560,382.265 115.199,382.100 115.197 C 381.694 115.193,380.800 113.214,380.800 112.320 C 380.800 111.924,380.620 111.600,380.400 111.600 C 380.180 111.600,380.000 111.240,380.000 110.800 C 380.000 110.360,379.820 110.000,379.600 110.000 C 379.380 110.000,379.200 109.640,379.200 109.200 C 379.200 108.760,379.020 108.400,378.800 108.400 C 378.580 108.400,378.400 108.164,378.400 107.875 C 378.400 107.587,378.040 106.964,377.600 106.492 C 377.160 106.020,376.800 105.482,376.800 105.296 C 376.800 104.703,375.811 102.806,375.500 102.803 C 375.335 102.801,375.200 102.440,375.200 102.000 C 375.200 101.560,375.020 101.200,374.800 101.200 C 374.580 101.200,374.400 100.926,374.400 100.592 C 374.400 100.258,373.950 99.271,373.400 98.400 C 372.850 97.529,372.400 96.712,372.400 96.586 C 372.400 96.213,369.086 91.412,368.728 91.267 C 368.547 91.193,368.400 90.854,368.400 90.514 C 368.400 90.173,368.084 89.603,367.697 89.247 C 367.311 88.891,366.740 88.105,366.430 87.500 C 366.119 86.895,365.715 86.400,365.532 86.400 C 365.350 86.400,365.200 86.157,365.200 85.859 C 365.200 85.562,364.660 84.754,364.000 84.063 C 363.340 83.372,362.800 82.602,362.800 82.351 C 362.800 82.099,362.484 81.603,362.097 81.247 C 361.711 80.891,361.144 80.111,360.837 79.514 C 360.530 78.916,360.127 78.522,359.940 78.637 C 359.753 78.753,359.600 78.606,359.600 78.312 C 359.600 78.017,359.240 77.517,358.800 77.200 C 358.360 76.883,357.997 76.438,357.994 76.212 C 357.990 75.985,357.450 75.191,356.794 74.446 C 356.137 73.701,355.600 72.964,355.600 72.808 C 355.600 72.652,354.645 71.539,353.478 70.334 C 352.311 69.129,350.918 67.526,350.382 66.771 C 349.022 64.856,344.524 60.409,344.237 60.696 C 344.107 60.827,343.999 60.678,343.999 60.367 C 343.998 60.055,343.486 59.457,342.861 59.038 C 342.235 58.619,341.381 57.765,340.962 57.139 C 340.543 56.514,339.975 56.002,339.700 56.001 C 339.425 56.001,339.200 55.819,339.200 55.598 C 339.200 55.090,335.251 51.200,334.736 51.200 C 334.525 51.200,334.440 51.059,334.546 50.887 C 334.653 50.715,334.078 50.135,333.270 49.598 C 332.461 49.061,331.319 48.138,330.731 47.547 C 330.143 46.955,329.558 46.576,329.431 46.703 C 329.304 46.829,329.200 46.633,329.200 46.267 C 329.200 45.900,328.930 45.600,328.600 45.600 C 328.270 45.600,328.000 45.390,328.000 45.133 C 328.000 44.877,327.889 44.778,327.753 44.914 C 327.617 45.050,326.852 44.541,326.053 43.784 C 325.254 43.027,324.458 42.405,324.284 42.403 C 324.111 42.402,323.245 41.683,322.360 40.807 C 321.475 39.931,320.177 38.941,319.476 38.608 C 318.774 38.274,317.401 37.291,316.424 36.424 C 315.448 35.556,314.514 34.930,314.349 35.032 C 314.184 35.133,313.903 34.971,313.725 34.672 C 313.546 34.372,312.630 33.791,311.689 33.381 C 310.545 32.883,310.049 32.449,310.193 32.073 C 310.342 31.686,310.210 31.587,309.772 31.755 C 309.422 31.890,308.750 31.730,308.278 31.400 C 307.807 31.070,307.597 30.794,307.811 30.787 C 308.336 30.770,306.761 29.598,306.224 29.606 C 305.991 29.609,306.070 29.806,306.400 30.044 C 306.882 30.391,306.843 30.420,306.200 30.192 C 305.760 30.037,305.085 29.819,304.700 29.708 C 304.285 29.589,304.000 29.118,304.000 28.553 C 304.000 27.957,303.767 27.600,303.376 27.600 C 303.002 27.600,302.868 27.787,303.042 28.068 M164.938 165.047 L 146.077 184.000 165.038 184.000 L 184.000 184.000 184.000 165.000 C 184.000 154.550,183.955 146.021,183.900 146.047 C 183.845 146.072,175.312 154.622,164.938 165.047 M393.705 149.876 C 394.077 150.248,394.515 150.418,394.679 150.254 C 394.843 150.091,394.712 149.789,394.388 149.584 C 393.415 148.969,392.982 149.153,393.705 149.876 M25.708 299.628 C 25.676 300.052,25.819 300.400,26.025 300.400 C 26.480 300.400,26.527 299.325,26.083 299.051 C 25.909 298.944,25.740 299.203,25.708 299.628 " stroke="none" fill="#328ef4" fill-rule="evenodd"></path><path id="path1" d="M194.237 91.772 C 190.108 93.502,186.815 96.899,185.346 100.946 C 184.639 102.892,184.594 105.139,184.493 143.700 L 184.385 184.400 144.493 184.405 C 102.484 184.410,102.860 184.395,99.067 186.195 C 88.469 191.224,88.062 207.735,98.398 213.360 C 102.621 215.659,101.201 215.590,144.500 215.595 L 184.400 215.600 184.405 255.500 C 184.410 298.799,184.341 297.379,186.640 301.602 C 192.121 311.673,207.879 311.673,213.360 301.602 C 215.659 297.379,215.590 298.799,215.595 255.500 L 215.600 215.600 255.500 215.595 C 288.021 215.591,295.781 215.489,297.460 215.042 C 313.129 210.870,313.129 189.130,297.460 184.958 C 295.781 184.511,288.021 184.409,255.500 184.405 L 215.600 184.400 215.595 144.500 C 215.590 101.235,215.657 102.617,213.375 98.425 C 209.872 91.989,201.044 88.920,194.237 91.772 " stroke="none" fill="#fafbfc" fill-rule="evenodd"></path><path id="path2" d="M181.882 0.251 C 181.717 0.417,181.001 0.597,180.291 0.652 C 179.581 0.707,178.505 0.837,177.900 0.941 C 177.295 1.045,176.800 0.965,176.800 0.765 C 176.800 0.041,175.073 0.420,174.231 1.328 C 173.758 1.839,173.197 2.199,172.985 2.129 C 172.773 2.058,134.177 40.424,87.215 87.386 C 30.579 144.023,1.726 172.609,1.521 172.286 C 1.308 171.951,1.210 172.017,1.206 172.500 C 1.203 172.885,1.425 173.203,1.700 173.206 C 2.060 173.211,2.045 173.310,1.646 173.563 C 1.279 173.796,1.180 174.267,1.353 174.957 C 1.514 175.598,1.449 176.000,1.184 176.000 C 0.947 176.000,0.856 175.832,0.983 175.628 C 1.109 175.423,1.002 175.125,0.744 174.965 C 0.287 174.683,0.300 174.837,1.003 178.100 C 1.086 178.485,1.012 178.800,0.839 178.800 C 0.665 178.800,0.558 179.295,0.600 179.900 C 0.642 180.505,0.518 181.315,0.324 181.700 C 0.083 182.179,0.128 182.400,0.466 182.400 C 0.850 182.400,0.853 182.507,0.480 182.880 C -0.429 183.789,-0.051 225.526,0.861 224.962 C 1.048 224.847,1.200 226.113,1.200 227.776 C 1.200 229.525,1.369 230.800,1.600 230.800 C 1.822 230.800,2.000 231.867,2.000 233.200 C 2.000 234.533,2.178 235.600,2.400 235.600 C 2.620 235.600,2.800 236.500,2.800 237.600 C 2.800 238.700,2.980 239.600,3.200 239.600 C 3.420 239.600,3.600 240.309,3.600 241.176 C 3.600 242.043,3.780 242.864,4.000 243.000 C 4.220 243.136,4.400 244.036,4.400 245.000 C 4.400 245.964,4.580 246.864,4.800 247.000 C 5.020 247.136,5.200 247.856,5.200 248.600 C 5.200 249.344,5.380 250.064,5.600 250.200 C 5.820 250.336,6.000 250.966,6.000 251.600 C 6.000 252.234,6.180 252.864,6.400 253.000 C 6.620 253.136,6.800 253.766,6.800 254.400 C 6.800 255.034,6.980 255.664,7.200 255.800 C 7.420 255.936,7.600 256.562,7.600 257.190 C 7.600 257.819,7.774 258.393,7.987 258.467 C 8.200 258.540,8.419 259.185,8.472 259.900 C 8.526 260.615,8.673 261.200,8.798 261.200 C 8.923 261.200,9.066 261.695,9.116 262.300 C 9.166 262.905,9.386 263.460,9.606 263.534 C 9.825 263.608,9.904 263.831,9.782 264.030 C 9.659 264.229,9.830 264.978,10.161 265.696 C 11.041 267.598,11.987 270.493,11.994 271.300 C 11.997 271.685,12.141 272.000,12.313 272.000 C 12.485 272.000,12.874 272.855,13.178 273.900 C 13.482 274.945,13.836 275.890,13.965 276.000 C 14.378 276.352,15.200 277.974,15.200 278.436 C 15.200 278.683,15.635 279.750,16.167 280.809 C 16.698 281.867,17.028 282.838,16.900 282.967 C 16.772 283.095,16.877 283.200,17.133 283.200 C 17.390 283.200,17.600 283.560,17.600 284.000 C 17.600 284.440,17.780 284.800,18.000 284.800 C 18.220 284.800,18.400 285.250,18.400 285.800 C 18.400 286.350,18.580 286.800,18.800 286.800 C 19.020 286.800,19.200 287.171,19.200 287.624 C 19.200 288.077,19.380 288.336,19.600 288.200 C 19.828 288.059,20.000 288.404,20.000 289.000 C 20.000 289.596,20.172 289.941,20.400 289.800 C 20.623 289.662,20.800 289.966,20.800 290.488 C 20.800 291.003,21.160 291.683,21.600 292.000 C 22.040 292.317,22.400 292.776,22.400 293.021 C 22.400 293.904,24.318 297.246,24.527 296.725 C 24.642 296.436,24.751 296.689,24.768 297.286 C 24.788 297.957,25.120 298.543,25.638 298.820 C 26.189 299.115,26.407 299.530,26.275 300.034 C 26.165 300.455,26.219 300.800,26.394 300.800 C 26.570 300.800,26.852 301.295,27.021 301.900 C 27.250 302.722,27.370 302.823,27.493 302.300 C 27.584 301.915,27.840 301.600,28.061 301.600 C 28.283 301.600,47.665 282.385,71.132 258.900 L 113.800 216.200 141.800 215.995 L 169.800 215.789 137.200 215.690 C 101.894 215.582,102.553 215.622,98.398 213.360 C 88.062 207.735,88.469 191.224,99.067 186.195 C 102.861 184.395,102.483 184.410,144.500 184.405 L 184.400 184.400 184.405 144.500 C 184.410 102.483,184.395 102.861,186.195 99.067 C 191.238 88.440,207.728 88.050,213.375 98.425 C 215.618 102.546,215.582 101.958,215.690 136.800 L 215.789 169.000 215.995 141.400 L 216.200 113.800 259.118 70.919 C 289.913 40.150,302.213 28.107,302.664 28.280 C 303.196 28.484,303.222 28.388,302.832 27.661 C 302.579 27.187,302.018 26.800,301.586 26.800 C 301.154 26.800,300.794 26.575,300.786 26.300 C 300.778 26.025,300.508 26.250,300.186 26.800 L 299.600 27.800 299.769 26.724 C 299.889 25.962,299.787 25.707,299.421 25.847 C 299.136 25.957,298.796 25.766,298.664 25.423 C 298.533 25.080,298.029 24.800,297.546 24.800 C 297.062 24.800,296.782 24.685,296.923 24.544 C 297.264 24.202,294.701 22.831,294.238 23.107 C 294.039 23.226,294.005 23.116,294.162 22.862 C 294.331 22.588,294.193 22.400,293.824 22.400 C 293.481 22.400,293.200 22.220,293.200 22.000 C 293.200 21.780,292.840 21.600,292.400 21.600 C 291.960 21.600,291.600 21.420,291.600 21.200 C 291.600 20.980,291.465 20.840,291.300 20.889 C 290.851 21.023,288.400 19.851,288.400 19.502 C 288.400 19.336,288.040 19.200,287.600 19.200 C 287.160 19.200,286.800 19.020,286.800 18.800 C 286.800 18.580,286.451 18.400,286.024 18.400 C 285.597 18.400,285.136 18.220,285.000 18.000 C 284.864 17.780,284.403 17.600,283.976 17.600 C 283.549 17.600,283.200 17.409,283.200 17.176 C 283.200 16.943,283.035 16.855,282.832 16.980 C 282.630 17.105,282.225 16.981,281.932 16.704 C 281.640 16.427,280.770 15.958,280.000 15.662 C 279.230 15.366,278.060 14.916,277.400 14.662 C 276.740 14.408,276.110 14.110,276.000 14.000 C 275.890 13.890,275.547 13.746,275.238 13.679 C 274.928 13.613,273.950 13.208,273.063 12.779 C 272.176 12.351,271.245 12.000,270.994 12.000 C 270.743 12.000,269.391 11.534,267.989 10.964 C 266.587 10.394,265.071 9.883,264.620 9.827 C 264.169 9.772,263.103 9.428,262.251 9.063 C 261.399 8.698,260.285 8.400,259.775 8.400 C 259.265 8.400,258.736 8.220,258.600 8.000 C 258.464 7.780,257.834 7.600,257.200 7.600 C 256.566 7.600,255.936 7.420,255.800 7.200 C 255.664 6.980,255.034 6.800,254.400 6.800 C 253.766 6.800,253.136 6.620,253.000 6.400 C 252.864 6.180,252.133 6.000,251.376 6.000 C 250.619 6.000,250.000 5.820,250.000 5.600 C 250.000 5.380,249.381 5.200,248.624 5.200 C 247.867 5.200,247.136 5.020,247.000 4.800 C 246.864 4.580,245.964 4.400,245.000 4.400 C 244.036 4.400,243.136 4.220,243.000 4.000 C 242.864 3.780,242.054 3.600,241.200 3.600 C 240.346 3.600,239.536 3.420,239.400 3.200 C 239.264 2.980,238.353 2.800,237.376 2.800 C 236.399 2.800,235.600 2.620,235.600 2.400 C 235.600 2.178,234.541 2.000,233.224 2.000 C 231.917 2.000,230.736 1.820,230.600 1.600 C 230.464 1.380,229.208 1.200,227.810 1.200 C 226.198 1.200,225.209 1.026,225.108 0.724 C 224.880 0.039,183.856 -0.310,183.042 0.365 C 182.639 0.700,182.436 0.707,182.331 0.392 C 182.250 0.149,182.048 0.085,181.882 0.251 M169.455 1.800 C 169.750 2.568,170.250 2.568,170.545 1.800 C 170.700 1.394,170.524 1.200,170.000 1.200 C 169.476 1.200,169.300 1.394,169.455 1.800 M302.064 27.696 C 301.438 28.322,300.414 28.429,300.638 27.845 C 300.739 27.583,301.203 27.340,301.670 27.305 C 302.305 27.257,302.404 27.356,302.064 27.696 M304.000 28.832 C 304.000 29.409,306.355 30.578,306.740 30.193 C 306.846 30.087,306.713 30.000,306.443 30.000 C 306.173 30.000,306.064 29.820,306.200 29.600 C 306.336 29.380,306.113 29.200,305.704 29.200 C 305.295 29.200,304.744 28.984,304.480 28.720 C 304.107 28.347,304.000 28.372,304.000 28.832 M308.224 31.387 C 309.242 32.158,309.824 32.167,309.057 31.400 C 308.727 31.070,308.230 30.800,307.952 30.800 C 307.669 30.800,307.788 31.058,308.224 31.387 M184.000 165.000 L 184.000 184.000 165.038 184.000 L 146.077 184.000 164.938 165.047 C 175.312 154.622,183.845 146.072,183.900 146.047 C 183.955 146.021,184.000 154.550,184.000 165.000 M2.000 165.000 C 2.000 165.367,2.194 165.602,2.430 165.523 C 2.986 165.338,2.986 164.662,2.430 164.477 C 2.194 164.398,2.000 164.633,2.000 165.000 M1.200 169.964 C 1.200 170.370,1.515 170.949,1.900 171.251 C 2.534 171.749,2.549 171.734,2.051 171.100 C 1.692 170.642,1.657 170.400,1.951 170.400 C 2.608 170.400,2.499 169.724,1.800 169.455 C 1.400 169.302,1.200 169.471,1.200 169.964 M28.297 302.833 C 27.627 303.224,27.627 303.287,28.297 304.209 C 29.085 305.292,29.867 305.498,29.867 304.622 C 29.867 304.304,29.762 304.056,29.633 304.070 C 28.605 304.180,28.394 303.959,28.800 303.200 C 29.287 302.290,29.262 302.272,28.297 302.833 " stroke="none" fill="#17bbf4" fill-rule="evenodd"></path><path id="path3" d="M176.800 0.765 C 176.800 0.965,177.256 1.080,177.813 1.018 C 179.332 0.852,179.517 0.400,178.067 0.400 C 177.370 0.400,176.800 0.564,176.800 0.765 M168.637 1.539 C 168.481 1.793,167.913 2.000,167.376 2.000 C 166.839 2.000,166.397 2.225,166.394 2.500 C 166.390 2.834,166.262 2.802,166.011 2.403 C 165.689 1.895,165.557 1.889,165.117 2.362 C 164.689 2.821,164.704 2.862,165.200 2.595 C 165.530 2.417,165.662 2.423,165.494 2.609 C 165.326 2.794,164.468 2.935,163.587 2.922 C 162.707 2.909,161.888 3.057,161.769 3.250 C 161.647 3.448,161.226 3.428,160.808 3.204 C 160.364 2.966,160.011 2.955,159.932 3.176 C 159.860 3.380,159.037 3.616,158.105 3.701 C 157.173 3.787,156.288 3.979,156.138 4.128 C 155.989 4.278,155.256 4.400,154.510 4.400 C 153.707 4.400,153.254 4.563,153.400 4.800 C 153.549 5.042,153.004 5.200,152.024 5.200 C 151.131 5.200,150.400 5.380,150.400 5.600 C 150.400 5.820,149.680 6.000,148.800 6.000 C 147.920 6.000,147.200 6.141,147.200 6.313 C 147.200 6.485,146.740 6.664,146.179 6.710 C 145.617 6.757,144.819 6.976,144.405 7.197 C 143.991 7.419,143.281 7.600,142.826 7.600 C 142.372 7.600,142.000 7.756,142.000 7.947 C 142.000 8.246,140.956 8.503,137.933 8.948 C 137.567 9.002,137.027 9.239,136.733 9.473 C 136.440 9.708,135.795 9.833,135.300 9.752 C 134.805 9.671,134.400 9.764,134.400 9.959 C 134.400 10.305,132.495 10.996,131.900 10.866 C 131.735 10.830,131.600 10.963,131.600 11.163 C 131.600 11.362,131.240 11.431,130.800 11.316 C 130.229 11.166,130.000 11.304,130.000 11.796 C 130.000 12.264,129.794 12.407,129.360 12.240 C 129.007 12.105,128.062 12.332,127.260 12.744 C 124.618 14.102,123.796 14.435,122.921 14.501 C 122.445 14.537,122.144 14.709,122.251 14.883 C 122.359 15.057,121.886 15.200,121.200 15.200 C 120.470 15.200,120.055 15.366,120.200 15.600 C 120.336 15.820,120.164 16.000,119.818 16.000 C 119.472 16.000,118.832 16.180,118.395 16.400 C 117.958 16.620,117.242 16.980,116.805 17.200 C 116.368 17.420,115.766 17.600,115.467 17.600 C 115.169 17.600,114.598 17.960,114.200 18.400 C 113.802 18.840,113.144 19.200,112.738 19.200 C 112.332 19.200,112.000 19.410,112.000 19.667 C 112.000 19.923,111.880 20.013,111.732 19.866 C 111.585 19.719,111.135 19.897,110.732 20.261 C 110.330 20.626,110.000 20.785,110.000 20.616 C 110.000 20.447,109.556 20.599,109.014 20.954 C 108.472 21.309,107.752 21.600,107.414 21.600 C 107.076 21.600,106.800 21.780,106.800 22.000 C 106.800 22.220,106.455 22.400,106.033 22.400 C 105.612 22.400,105.207 22.567,105.133 22.770 C 105.060 22.974,104.730 23.199,104.400 23.270 C 104.070 23.342,103.509 23.715,103.153 24.100 C 102.797 24.485,102.212 24.800,101.853 24.800 C 101.494 24.800,101.200 24.991,101.200 25.224 C 101.200 25.457,101.035 25.545,100.832 25.420 C 100.630 25.295,100.180 25.477,99.832 25.825 C 99.485 26.173,99.194 26.309,99.187 26.129 C 99.180 25.948,98.922 26.133,98.614 26.540 C 98.285 26.974,97.851 27.155,97.565 26.978 C 97.253 26.785,97.179 26.843,97.362 27.138 C 97.542 27.430,97.344 27.600,96.824 27.600 C 96.371 27.600,96.000 27.780,96.000 28.000 C 96.000 28.220,95.700 28.400,95.333 28.400 C 94.967 28.400,94.784 28.517,94.927 28.661 C 95.239 28.973,93.368 30.000,92.488 30.000 C 92.146 30.000,91.984 30.117,92.127 30.260 C 92.463 30.596,91.186 31.571,90.388 31.587 C 90.052 31.594,89.517 31.960,89.200 32.400 C 88.883 32.840,88.476 33.200,88.295 33.200 C 88.114 33.200,87.580 33.560,87.108 34.000 C 86.636 34.440,86.014 34.800,85.726 34.800 C 85.437 34.800,84.538 35.426,83.726 36.192 C 82.915 36.957,82.175 37.508,82.083 37.416 C 81.991 37.324,81.473 37.691,80.932 38.232 C 80.391 38.773,79.752 39.094,79.512 38.946 C 79.251 38.785,79.191 38.862,79.362 39.138 C 79.533 39.415,79.387 39.600,79.000 39.600 C 78.644 39.600,78.464 39.780,78.600 40.000 C 78.736 40.220,78.556 40.400,78.200 40.400 C 77.844 40.400,77.664 40.580,77.800 40.800 C 77.936 41.020,77.666 41.200,77.200 41.200 C 76.734 41.200,76.464 41.380,76.600 41.600 C 76.736 41.820,76.567 42.000,76.224 42.000 C 75.881 42.000,75.600 42.210,75.600 42.467 C 75.600 42.723,75.486 42.820,75.347 42.681 C 75.208 42.542,74.622 42.917,74.044 43.514 C 73.465 44.111,72.775 44.643,72.509 44.696 C 72.243 44.748,71.133 45.693,70.042 46.796 C 68.951 47.898,67.855 48.800,67.606 48.800 C 67.357 48.800,67.267 48.984,67.406 49.210 C 67.545 49.435,67.511 49.594,67.330 49.563 C 66.465 49.412,66.000 49.659,66.000 50.267 C 66.000 50.633,65.907 50.841,65.794 50.728 C 65.585 50.518,59.180 56.785,57.900 58.451 C 57.515 58.953,57.200 59.249,57.200 59.111 C 57.200 58.715,49.680 66.362,48.703 67.752 C 48.221 68.438,47.152 69.654,46.328 70.454 C 45.505 71.253,44.779 72.152,44.715 72.450 C 44.652 72.748,44.111 73.465,43.514 74.044 C 42.917 74.622,42.542 75.208,42.681 75.347 C 42.820 75.486,42.723 75.600,42.467 75.600 C 42.210 75.600,42.045 75.825,42.100 76.100 C 42.155 76.375,41.975 76.555,41.700 76.500 C 41.425 76.445,41.200 76.670,41.200 77.000 C 41.200 77.330,41.020 77.600,40.800 77.600 C 40.580 77.600,40.400 77.881,40.400 78.224 C 40.400 78.567,40.220 78.736,40.000 78.600 C 39.780 78.464,39.600 78.644,39.600 79.000 C 39.600 79.387,39.415 79.533,39.138 79.362 C 38.862 79.191,38.785 79.251,38.946 79.512 C 39.094 79.752,38.762 80.402,38.208 80.956 C 37.653 81.510,37.200 82.152,37.200 82.382 C 37.200 82.612,37.020 82.800,36.800 82.800 C 36.580 82.800,36.400 83.070,36.400 83.400 C 36.400 83.730,36.220 84.000,36.000 84.000 C 35.780 84.000,35.600 84.281,35.600 84.624 C 35.600 85.009,35.409 85.137,35.100 84.959 C 34.825 84.801,34.730 84.816,34.889 84.992 C 35.207 85.344,34.017 87.600,33.514 87.600 C 33.341 87.600,33.200 87.870,33.200 88.200 C 33.200 88.530,33.032 88.800,32.827 88.800 C 32.622 88.800,32.338 89.166,32.196 89.613 C 32.054 90.060,31.483 90.881,30.927 91.437 C 30.370 91.993,30.019 92.553,30.146 92.680 C 30.346 92.880,29.891 93.556,27.994 95.883 C 27.777 96.149,27.600 96.554,27.600 96.783 C 27.600 97.012,27.409 97.200,27.176 97.200 C 26.943 97.200,26.864 97.380,27.000 97.600 C 27.136 97.820,27.078 98.000,26.872 98.000 C 26.473 98.000,25.345 100.394,25.505 100.900 C 25.557 101.065,25.420 101.200,25.200 101.200 C 24.980 101.200,24.800 101.494,24.800 101.853 C 24.800 102.212,24.485 102.797,24.100 103.153 C 23.715 103.509,23.338 104.250,23.262 104.800 C 23.186 105.350,22.961 105.860,22.762 105.933 C 22.563 106.007,22.400 106.332,22.400 106.657 C 22.400 106.982,22.220 107.136,22.000 107.000 C 21.780 106.864,21.600 107.040,21.600 107.390 C 21.600 107.741,21.309 108.472,20.954 109.014 C 20.599 109.556,20.432 110.000,20.583 110.000 C 20.734 110.000,20.573 110.285,20.225 110.632 C 19.877 110.980,19.695 111.430,19.820 111.632 C 19.945 111.835,19.857 112.000,19.624 112.000 C 19.391 112.000,19.200 112.360,19.200 112.800 C 19.200 113.240,19.063 113.600,18.896 113.600 C 18.729 113.600,18.356 113.979,18.067 114.442 C 17.778 114.905,17.717 115.175,17.933 115.041 C 18.149 114.908,18.117 115.248,17.863 115.796 C 17.608 116.345,17.265 116.795,17.100 116.797 C 16.935 116.799,16.800 117.149,16.800 117.576 C 16.800 118.003,16.620 118.464,16.400 118.600 C 16.180 118.736,16.000 119.207,16.000 119.647 C 16.000 120.087,15.820 120.336,15.600 120.200 C 15.380 120.064,15.200 120.313,15.200 120.753 C 15.200 121.193,15.020 121.664,14.800 121.800 C 14.580 121.936,14.400 122.476,14.400 123.000 C 14.400 123.524,14.220 124.064,14.000 124.200 C 13.780 124.336,13.600 124.807,13.600 125.247 C 13.600 125.687,13.431 125.943,13.224 125.815 C 13.018 125.687,12.850 125.902,12.851 126.291 C 12.855 127.284,11.867 130.000,11.502 130.000 C 11.336 130.000,11.200 130.450,11.200 131.000 C 11.200 131.550,10.999 132.000,10.753 132.000 C 10.506 132.000,10.399 132.351,10.512 132.785 C 10.625 133.217,10.466 133.779,10.160 134.034 C 9.853 134.288,9.678 134.914,9.770 135.425 C 9.863 135.936,9.746 136.418,9.510 136.497 C 9.274 136.575,9.018 137.171,8.942 137.820 C 8.621 140.538,8.294 142.000,8.007 142.000 C 7.840 142.000,7.591 142.675,7.455 143.500 C 7.319 144.325,6.976 145.450,6.692 146.000 C 6.409 146.550,6.119 147.720,6.049 148.600 C 5.979 149.480,5.750 150.306,5.540 150.437 C 5.330 150.567,5.189 150.837,5.226 151.037 C 5.425 152.093,5.151 153.617,4.800 153.400 C 4.563 153.254,4.400 153.707,4.400 154.510 C 4.400 155.256,4.270 155.996,4.112 156.155 C 3.954 156.313,3.768 157.371,3.699 158.506 C 3.630 159.641,3.409 160.671,3.208 160.795 C 3.006 160.920,2.888 161.980,2.945 163.152 C 3.010 164.489,2.876 165.349,2.585 165.461 C 1.888 165.729,2.063 168.230,2.768 168.077 C 3.237 167.976,3.246 168.063,2.819 168.577 C 2.244 169.270,1.814 169.424,2.200 168.800 C 2.336 168.580,2.267 168.400,2.047 168.400 C 1.287 168.400,1.186 169.152,1.892 169.552 C 2.561 169.932,2.557 169.985,1.818 170.531 C 1.207 170.983,1.120 171.293,1.418 171.958 C 1.762 172.723,10.245 164.361,87.200 87.401 C 134.170 40.427,172.810 2.075,173.067 2.172 C 173.324 2.270,173.623 2.117,173.732 1.833 C 174.024 1.072,170.876 1.228,170.401 1.998 C 170.083 2.513,169.954 2.490,169.477 1.837 C 169.094 1.314,168.834 1.222,168.637 1.539 M0.400 177.533 C 0.400 178.230,0.568 178.800,0.774 178.800 C 0.979 178.800,1.058 178.309,0.949 177.709 C 0.665 176.144,0.400 176.059,0.400 177.533 " stroke="none" fill="#0cccf4" fill-rule="evenodd"></path><path id="path4" d="M391.701 143.846 C 392.086 144.296,392.295 144.772,392.164 144.902 C 391.789 145.278,392.403 146.800,392.930 146.800 C 393.192 146.800,338.099 202.104,270.503 269.698 C 202.906 337.293,147.600 392.752,147.600 392.941 C 147.600 393.131,147.895 393.172,148.257 393.034 C 148.830 392.814,148.842 392.867,148.357 393.457 C 147.852 394.070,147.903 394.107,148.909 393.857 C 149.679 393.665,150.082 393.747,150.227 394.126 C 150.345 394.435,151.079 394.696,151.915 394.727 C 152.729 394.758,153.456 394.967,153.530 395.191 C 153.605 395.416,154.156 395.600,154.753 395.600 C 155.351 395.600,156.082 395.825,156.379 396.100 C 156.810 396.500,156.861 396.500,156.635 396.100 C 156.480 395.825,156.543 395.600,156.776 395.600 C 157.009 395.600,157.200 395.753,157.200 395.939 C 157.200 396.126,157.781 396.295,158.492 396.315 C 159.203 396.335,159.848 396.543,159.925 396.776 C 160.003 397.010,161.114 397.200,162.410 397.200 C 163.698 397.200,164.864 397.380,165.000 397.600 C 165.136 397.820,166.036 398.000,167.000 398.000 C 167.964 398.000,168.848 398.154,168.964 398.342 C 169.080 398.530,170.389 398.717,171.874 398.758 C 173.358 398.798,174.669 398.981,174.786 399.163 C 175.405 400.123,225.200 400.083,225.200 399.123 C 225.200 398.946,226.449 398.800,227.976 398.800 C 229.503 398.800,230.864 398.620,231.000 398.400 C 231.136 398.180,232.212 398.000,233.390 398.000 C 234.569 398.000,235.593 397.830,235.667 397.622 C 235.740 397.414,236.736 397.203,237.880 397.152 C 239.024 397.101,239.868 396.911,239.756 396.729 C 239.644 396.548,240.363 396.400,241.353 396.400 C 242.343 396.400,243.264 396.220,243.400 396.000 C 243.536 395.780,244.346 395.600,245.200 395.600 C 246.054 395.600,246.864 395.420,247.000 395.200 C 247.136 394.980,247.967 394.800,248.847 394.800 C 249.812 394.800,250.349 394.641,250.200 394.400 C 250.051 394.159,250.588 394.000,251.553 394.000 C 252.433 394.000,253.264 393.820,253.400 393.600 C 253.536 393.380,254.076 393.200,254.600 393.200 C 255.124 393.200,255.664 393.020,255.800 392.800 C 255.936 392.580,256.566 392.400,257.200 392.400 C 257.834 392.400,258.449 392.244,258.567 392.053 C 258.685 391.862,259.679 391.587,260.775 391.441 C 261.870 391.296,262.875 391.002,263.007 390.788 C 263.139 390.575,263.766 390.400,264.400 390.400 C 265.034 390.400,265.664 390.220,265.800 390.000 C 265.936 389.780,266.487 389.600,267.024 389.600 C 267.561 389.600,268.000 389.443,268.000 389.252 C 268.000 389.061,268.855 388.674,269.900 388.393 C 270.945 388.112,271.971 387.729,272.180 387.541 C 272.389 387.353,272.974 387.200,273.480 387.200 C 273.986 387.200,274.400 387.020,274.400 386.800 C 274.400 386.580,274.760 386.400,275.200 386.400 C 275.640 386.400,276.000 386.220,276.000 386.000 C 276.000 385.780,276.463 385.600,277.029 385.600 C 277.594 385.600,278.329 385.328,278.661 384.996 C 278.993 384.664,279.430 384.495,279.632 384.620 C 279.835 384.745,280.000 384.701,280.000 384.521 C 280.000 384.342,280.585 383.951,281.300 383.653 C 282.015 383.355,283.095 382.907,283.700 382.658 C 284.305 382.409,284.800 382.069,284.800 381.902 C 284.800 381.736,284.935 381.621,285.100 381.647 C 286.091 381.804,287.210 381.540,287.000 381.200 C 286.864 380.980,287.123 380.800,287.576 380.800 C 288.029 380.800,288.400 380.620,288.400 380.400 C 288.400 380.180,288.634 380.000,288.920 380.000 C 289.656 380.000,291.593 379.059,291.597 378.700 C 291.599 378.535,291.945 378.400,292.367 378.400 C 292.788 378.400,293.193 378.265,293.267 378.100 C 293.340 377.935,294.255 377.367,295.300 376.837 C 296.345 376.308,297.200 375.723,297.200 375.537 C 297.200 375.352,297.547 375.200,297.971 375.200 C 298.396 375.200,299.013 374.930,299.343 374.600 C 299.673 374.270,300.138 374.000,300.377 374.000 C 300.936 374.000,302.516 373.118,302.885 372.600 C 303.042 372.380,303.312 372.194,303.485 372.187 C 303.658 372.179,304.561 371.684,305.492 371.087 C 306.423 370.489,307.302 370.000,307.445 370.000 C 307.589 370.000,307.997 369.684,308.353 369.297 C 308.709 368.911,309.495 368.340,310.100 368.030 C 310.705 367.719,311.200 367.315,311.200 367.132 C 311.200 366.950,311.520 366.800,311.912 366.800 C 312.303 366.800,312.883 366.440,313.200 366.000 C 313.517 365.560,314.054 365.200,314.392 365.200 C 314.731 365.200,315.232 364.840,315.507 364.400 C 315.782 363.960,316.286 363.600,316.627 363.600 C 316.968 363.600,317.136 363.420,317.000 363.200 C 316.864 362.980,317.084 362.800,317.488 362.800 C 317.893 362.800,318.483 362.440,318.800 362.000 C 319.117 361.560,319.707 361.200,320.112 361.200 C 320.516 361.200,320.736 361.020,320.600 360.800 C 320.464 360.580,320.644 360.400,321.000 360.400 C 321.356 360.400,321.536 360.220,321.400 360.000 C 321.264 359.780,321.433 359.600,321.776 359.600 C 322.119 359.600,322.400 359.420,322.400 359.200 C 322.400 358.980,322.588 358.800,322.817 358.800 C 323.256 358.800,323.522 358.604,325.596 356.751 C 326.305 356.118,327.041 355.600,327.232 355.600 C 327.423 355.600,328.349 354.833,329.289 353.895 C 330.230 352.957,331.630 351.745,332.400 351.201 C 334.107 349.996,341.600 342.513,341.600 342.013 C 341.600 341.815,341.960 341.540,342.400 341.400 C 342.840 341.260,343.200 340.858,343.200 340.506 C 343.200 340.155,343.306 339.973,343.436 340.103 C 343.713 340.380,350.400 333.789,350.400 333.239 C 350.400 333.034,351.570 331.673,353.000 330.215 C 354.430 328.757,355.600 327.411,355.600 327.224 C 355.600 327.037,356.095 326.329,356.700 325.651 C 358.539 323.588,358.800 323.247,358.800 322.905 C 358.800 322.724,359.160 322.317,359.600 322.000 C 360.040 321.683,360.400 321.183,360.400 320.888 C 360.400 320.594,360.580 320.464,360.800 320.600 C 361.020 320.736,361.200 320.516,361.200 320.112 C 361.200 319.707,361.560 319.117,362.000 318.800 C 362.440 318.483,362.800 317.893,362.800 317.488 C 362.800 317.084,362.980 316.864,363.200 317.000 C 363.420 317.136,363.600 316.968,363.600 316.627 C 363.600 316.286,363.960 315.782,364.400 315.507 C 364.840 315.232,365.200 314.731,365.200 314.392 C 365.200 314.054,365.560 313.517,366.000 313.200 C 366.440 312.883,366.800 312.303,366.800 311.912 C 366.800 311.520,366.950 311.200,367.132 311.200 C 367.315 311.200,367.719 310.705,368.030 310.100 C 368.340 309.495,368.866 308.728,369.197 308.396 C 369.823 307.768,370.280 307.023,371.662 304.371 C 372.112 303.507,372.643 302.800,372.840 302.800 C 373.038 302.800,373.200 302.440,373.200 302.000 C 373.200 301.560,373.347 301.200,373.526 301.200 C 373.901 301.200,375.200 298.619,375.200 297.875 C 375.200 297.601,375.560 297.117,376.000 296.800 C 376.440 296.483,376.800 296.029,376.800 295.791 C 376.800 295.125,377.763 293.207,378.100 293.203 C 378.265 293.201,378.400 292.840,378.400 292.400 C 378.400 291.960,378.535 291.599,378.700 291.597 C 379.065 291.593,380.000 289.651,380.000 288.897 C 380.000 288.598,380.180 288.464,380.400 288.600 C 380.628 288.741,380.800 288.396,380.800 287.800 C 380.800 287.204,380.972 286.859,381.200 287.000 C 381.420 287.136,381.600 286.887,381.600 286.447 C 381.600 286.007,381.780 285.536,382.000 285.400 C 382.220 285.264,382.400 284.713,382.400 284.176 C 382.400 283.639,382.580 283.200,382.800 283.200 C 383.020 283.200,383.200 282.840,383.200 282.400 C 383.200 281.960,383.380 281.600,383.600 281.600 C 383.820 281.600,384.000 281.240,384.000 280.800 C 384.000 280.360,384.191 280.000,384.424 280.000 C 384.657 280.000,384.752 279.847,384.636 279.659 C 384.520 279.471,384.684 278.976,385.000 278.559 C 385.316 278.142,385.580 277.395,385.587 276.900 C 385.594 276.405,385.780 276.000,386.000 276.000 C 386.220 276.000,386.400 275.640,386.400 275.200 C 386.400 274.760,386.580 274.400,386.800 274.400 C 387.020 274.400,387.200 273.986,387.200 273.480 C 387.200 272.974,387.353 272.389,387.541 272.180 C 387.729 271.971,388.112 270.945,388.393 269.900 C 388.674 268.855,389.080 268.000,389.295 268.000 C 389.510 268.000,389.589 267.747,389.470 267.439 C 389.352 267.130,389.507 266.545,389.815 266.139 C 390.123 265.732,390.380 264.916,390.387 264.324 C 390.394 263.732,390.563 263.146,390.763 263.023 C 390.962 262.900,391.249 261.900,391.400 260.800 C 391.551 259.700,391.838 258.700,392.037 258.577 C 392.237 258.454,392.400 257.834,392.400 257.200 C 392.400 256.566,392.580 255.936,392.800 255.800 C 393.020 255.664,393.200 255.124,393.200 254.600 C 393.200 254.076,393.380 253.536,393.600 253.400 C 393.820 253.264,394.000 252.533,394.000 251.776 C 394.000 251.019,394.180 250.400,394.400 250.400 C 394.620 250.400,394.800 249.691,394.800 248.824 C 394.800 247.957,394.980 247.136,395.200 247.000 C 395.420 246.864,395.600 246.144,395.600 245.400 C 395.600 244.656,395.780 243.936,396.000 243.800 C 396.220 243.664,396.400 242.764,396.400 241.800 C 396.400 240.836,396.580 239.936,396.800 239.800 C 397.020 239.664,397.200 238.663,397.200 237.576 C 397.200 236.489,397.380 235.600,397.600 235.600 C 397.820 235.600,398.000 234.621,398.000 233.424 C 398.000 232.227,398.180 231.136,398.400 231.000 C 398.620 230.864,398.800 229.503,398.800 227.976 C 398.800 226.449,398.955 225.200,399.144 225.200 C 399.971 225.200,400.145 175.384,399.319 174.874 C 399.052 174.708,398.814 173.463,398.768 171.991 C 398.724 170.566,398.527 169.194,398.330 168.942 C 398.133 168.691,397.956 167.611,397.937 166.542 C 397.917 165.474,397.743 164.499,397.551 164.376 C 397.358 164.254,397.171 163.399,397.135 162.476 C 397.098 161.554,396.918 160.800,396.734 160.800 C 396.550 160.800,396.400 159.990,396.400 159.000 C 396.400 158.010,396.220 157.200,396.000 157.200 C 395.780 157.200,395.600 157.009,395.600 156.776 C 395.600 156.543,395.825 156.480,396.100 156.635 C 396.500 156.861,396.500 156.810,396.100 156.379 C 395.825 156.082,395.600 155.336,395.600 154.720 C 395.600 154.104,395.420 153.600,395.200 153.600 C 394.980 153.600,394.800 152.954,394.800 152.164 C 394.800 151.164,394.527 150.500,393.900 149.977 C 393.405 149.564,393.213 149.221,393.473 149.213 C 394.077 149.196,394.032 146.868,393.421 146.486 C 393.170 146.329,392.973 145.773,392.982 145.250 C 392.993 144.660,392.621 144.059,392.000 143.664 C 391.011 143.034,391.008 143.036,391.701 143.846 M141.200 391.813 C 141.200 392.136,141.470 392.400,141.800 392.400 C 142.130 392.400,142.400 392.239,142.400 392.043 C 142.400 391.846,142.130 391.582,141.800 391.455 C 141.435 391.315,141.200 391.455,141.200 391.813 M144.158 392.175 C 144.189 392.782,144.464 392.995,145.200 392.983 C 145.750 392.973,146.332 393.153,146.494 393.383 C 146.673 393.637,146.790 393.559,146.794 393.183 C 146.797 392.844,146.196 392.293,145.458 391.959 C 144.171 391.375,144.118 391.384,144.158 392.175 " stroke="none" fill="#4768f4" fill-rule="evenodd"></path></g></svg>